<?xml version="1.0" encoding="iso-8859-1"?>
<!-- Uploaded to: SVG Repo, www.svgrepo.com, Generator: SVG Repo Mixer Tools -->
<svg fill="red" height="800px" width="800px" version="1.1" id="Layer_1" xmlns="http://www.w3.org/2000/svg" xmlns:xlink="http://www.w3.org/1999/xlink" 
	 viewBox="0 0 512 512" xml:space="preserve">
<g>
	<g>
		<g>
			<path d="M256,0C114.618,0,0,114.618,0,256s114.618,256,256,256s256-114.618,256-256S397.382,0,256,0z M256,469.333
				c-117.818,0-213.333-95.515-213.333-213.333S138.182,42.667,256,42.667S469.333,138.182,469.333,256S373.818,469.333,256,469.333
				z"/>
			<path d="M376.679,135.32C376.679,135.319,376.679,135.319,376.679,135.32C376.678,135.319,376.678,135.319,376.679,135.32
				C345.794,104.435,303.128,85.333,256,85.333c-94.257,0-170.667,76.41-170.667,170.667S161.743,426.667,256,426.667
				c47.128,0,89.794-19.102,120.678-49.986c0,0,0,0,0,0c0,0,0,0,0,0c30.885-30.885,49.988-73.552,49.988-120.68
				S407.564,166.204,376.679,135.32z M360.334,330.167l-30.83-30.83c4.012-6.79,7.125-14.174,9.14-22.004h43.575
				C378.957,296.781,371.317,314.745,360.334,330.167z M129.78,277.333h43.575c2.015,7.829,5.128,15.213,9.14,22.002l-30.83,30.83
				C140.683,314.744,133.043,296.781,129.78,277.333z M151.665,181.835l30.83,30.83c-4.011,6.79-7.125,14.173-9.14,22.002H129.78
				C133.043,215.219,140.683,197.256,151.665,181.835z M256,298.667c-11.772,0-22.429-4.766-30.148-12.474
				c-0.007-0.008-0.014-0.016-0.021-0.023s-0.016-0.014-0.023-0.021c-7.708-7.719-12.474-18.376-12.474-30.148
				s4.766-22.429,12.474-30.148c0.008-0.007,0.016-0.014,0.023-0.021s0.014-0.016,0.021-0.023
				c7.719-7.708,18.376-12.474,30.148-12.474c23.567,0,42.667,19.099,42.667,42.667S279.567,298.667,256,298.667z M299.334,182.494
				c-6.789-4.011-14.173-7.124-22.001-9.139V129.78c19.447,3.263,37.409,10.903,52.831,21.884L299.334,182.494z M234.667,173.355
				c-7.829,2.015-15.213,5.128-22.002,9.14l-30.83-30.83c15.422-10.982,33.385-18.622,52.832-21.885V173.355z M212.664,329.506
				c6.79,4.011,14.173,7.125,22.002,9.14v43.575c-19.447-3.263-37.41-10.903-52.832-21.885L212.664,329.506z M277.333,338.645
				c7.828-2.015,15.212-5.128,22.001-9.139l30.83,30.83c-15.421,10.982-33.384,18.621-52.831,21.884V338.645z M338.645,234.667
				c-2.015-7.829-5.128-15.214-9.14-22.004l30.83-30.83c10.983,15.422,18.623,33.385,21.886,52.833H338.645z"/>
		</g>
	</g>
</g>
</svg>